<svg xmlns="http://www.w3.org/2000/svg" viewBox="0 0 400 225" width="400" height="225">
  <defs>
    <linearGradient id="bg" x1="0" y1="0" x2="1" y2="1">
      <stop offset="0%" stop-color="#0a3020"/>
      <stop offset="100%" stop-color="#062010"/>
    </linearGradient>
  </defs>
  <rect width="400" height="225" fill="url(#bg)"/>
  <rect x="75" y="22" width="250" height="180" rx="8" fill="rgba(0,100,40,0.7)" stroke="rgba(255,255,255,0.2)" stroke-width="1.5"/><line x1="75" y1="22.0" x2="325" y2="22.0" stroke="rgba(0,0,0,0.3)" stroke-width="0.5"/><line x1="75.0" y1="22" x2="75.0" y2="202" stroke="rgba(0,0,0,0.3)" stroke-width="0.5"/><line x1="75" y1="44.5" x2="325" y2="44.5" stroke="rgba(0,0,0,0.3)" stroke-width="0.5"/><line x1="106.25" y1="22" x2="106.25" y2="202" stroke="rgba(0,0,0,0.3)" stroke-width="0.5"/><line x1="75" y1="67.0" x2="325" y2="67.0" stroke="rgba(0,0,0,0.3)" stroke-width="0.5"/><line x1="137.5" y1="22" x2="137.5" y2="202" stroke="rgba(0,0,0,0.3)" stroke-width="0.5"/><line x1="75" y1="89.5" x2="325" y2="89.5" stroke="rgba(0,0,0,0.3)" stroke-width="0.5"/><line x1="168.75" y1="22" x2="168.75" y2="202" stroke="rgba(0,0,0,0.3)" stroke-width="0.5"/><line x1="75" y1="112.0" x2="325" y2="112.0" stroke="rgba(0,0,0,0.3)" stroke-width="0.5"/><line x1="200.0" y1="22" x2="200.0" y2="202" stroke="rgba(0,0,0,0.3)" stroke-width="0.5"/><line x1="75" y1="134.5" x2="325" y2="134.5" stroke="rgba(0,0,0,0.3)" stroke-width="0.5"/><line x1="231.25" y1="22" x2="231.25" y2="202" stroke="rgba(0,0,0,0.3)" stroke-width="0.5"/><line x1="75" y1="157.0" x2="325" y2="157.0" stroke="rgba(0,0,0,0.3)" stroke-width="0.5"/><line x1="262.5" y1="22" x2="262.5" y2="202" stroke="rgba(0,0,0,0.3)" stroke-width="0.5"/><line x1="75" y1="179.5" x2="325" y2="179.5" stroke="rgba(0,0,0,0.3)" stroke-width="0.5"/><line x1="293.75" y1="22" x2="293.75" y2="202" stroke="rgba(0,0,0,0.3)" stroke-width="0.5"/><line x1="75" y1="202.0" x2="325" y2="202.0" stroke="rgba(0,0,0,0.3)" stroke-width="0.5"/><line x1="325.0" y1="22" x2="325.0" y2="202" stroke="rgba(0,0,0,0.3)" stroke-width="0.5"/><circle cx="168" cy="112" r="10" fill="white" stroke="#ccc" stroke-width="1"/><circle cx="200" cy="112" r="10" fill="white" stroke="#ccc" stroke-width="1"/><circle cx="232" cy="112" r="10" fill="#111" stroke="#555" stroke-width="1"/><circle cx="264" cy="112" r="10" fill="white" stroke="#ccc" stroke-width="1"/><circle cx="168" cy="134" r="10" fill="#111" stroke="#555" stroke-width="1"/><circle cx="200" cy="134" r="10" fill="white" stroke="#ccc" stroke-width="1"/><circle cx="232" cy="134" r="10" fill="#111" stroke="#555" stroke-width="1"/><circle cx="264" cy="134" r="10" fill="#111" stroke="#555" stroke-width="1"/><circle cx="168" cy="156" r="10" fill="white" stroke="#ccc" stroke-width="1"/><circle cx="200" cy="156" r="10" fill="#111" stroke="#555" stroke-width="1"/><circle cx="232" cy="156" r="10" fill="white" stroke="#ccc" stroke-width="1"/><circle cx="264" cy="156" r="10" fill="#111" stroke="#555" stroke-width="1"/><circle cx="168" cy="178" r="10" fill="#111" stroke="#555" stroke-width="1"/><circle cx="200" cy="178" r="10" fill="white" stroke="#ccc" stroke-width="1"/><circle cx="232" cy="178" r="10" fill="#111" stroke="#555" stroke-width="1"/><circle cx="264" cy="178" r="10" fill="white" stroke="#ccc" stroke-width="1"/><text x="200" y="213" font-family="Georgia,serif" font-size="13" font-weight="bold" text-anchor="middle" fill="rgba(255,255,255,0.7)" letter-spacing="2">OTHELLO · REVERSI</text>
</svg>