<svg xmlns="http://www.w3.org/2000/svg" viewBox="0 0 400 225" width="400" height="225">
  <defs>
    <linearGradient id="bg" x1="0" y1="0" x2="1" y2="1">
      <stop offset="0%" stop-color="#1a0a2e"/>
      <stop offset="100%" stop-color="#100618"/>
    </linearGradient>
  </defs>
  <rect width="400" height="225" fill="url(#bg)"/>
  <rect x="62" y="20" width="276" height="185" rx="8" fill="rgba(255,255,255,0.12)" stroke="rgba(255,255,255,0.2)" stroke-width="1.5"/><rect x="62" y="20" width="100" height="85" rx="4" fill="#e74c3c" opacity="0.7"/><rect x="238" y="20" width="100" height="85" rx="4" fill="#3498db" opacity="0.7"/><rect x="62" y="120" width="100" height="85" rx="4" fill="#2ecc71" opacity="0.7"/><rect x="238" y="120" width="100" height="85" rx="4" fill="#f39c12" opacity="0.7"/><rect x="150" y="85" width="100" height="55" rx="4" fill="rgba(255,255,255,0.15)"/><text x="200" y="122" font-size="28" text-anchor="middle" fill="rgba(255,255,255,0.8)">★</text><circle cx="95" cy="55" r="10" fill="#c0392b" stroke="rgba(255,255,255,0.5)" stroke-width="1.5"/><circle cx="95" cy="55" r="5" fill="rgba(255,255,255,0.4)"/><circle cx="110" cy="70" r="10" fill="#c0392b" stroke="rgba(255,255,255,0.5)" stroke-width="1.5"/><circle cx="110" cy="70" r="5" fill="rgba(255,255,255,0.4)"/><circle cx="270" cy="55" r="10" fill="#2980b9" stroke="rgba(255,255,255,0.5)" stroke-width="1.5"/><circle cx="270" cy="55" r="5" fill="rgba(255,255,255,0.4)"/><circle cx="285" cy="70" r="10" fill="#2980b9" stroke="rgba(255,255,255,0.5)" stroke-width="1.5"/><circle cx="285" cy="70" r="5" fill="rgba(255,255,255,0.4)"/><circle cx="95" cy="150" r="10" fill="#27ae60" stroke="rgba(255,255,255,0.5)" stroke-width="1.5"/><circle cx="95" cy="150" r="5" fill="rgba(255,255,255,0.4)"/><circle cx="110" cy="165" r="10" fill="#27ae60" stroke="rgba(255,255,255,0.5)" stroke-width="1.5"/><circle cx="110" cy="165" r="5" fill="rgba(255,255,255,0.4)"/><circle cx="270" cy="150" r="10" fill="#e67e22" stroke="rgba(255,255,255,0.5)" stroke-width="1.5"/><circle cx="270" cy="150" r="5" fill="rgba(255,255,255,0.4)"/><circle cx="285" cy="165" r="10" fill="#e67e22" stroke="rgba(255,255,255,0.5)" stroke-width="1.5"/><circle cx="285" cy="165" r="5" fill="rgba(255,255,255,0.4)"/><text x="200" y="213" font-family="Georgia,serif" font-size="16" font-weight="bold" text-anchor="middle" fill="rgba(255,255,255,0.8)" letter-spacing="4">LUDO</text>
</svg>