<svg xmlns="http://www.w3.org/2000/svg" viewBox="0 0 400 225" width="400" height="225">
  <defs>
    <linearGradient id="bg" x1="0" y1="0" x2="1" y2="1">
      <stop offset="0%" stop-color="#0a2010"/>
      <stop offset="100%" stop-color="#061408"/>
    </linearGradient>
  </defs>
  <rect width="400" height="225" fill="url(#bg)"/>
  <rect x="30" y="10" width="340" height="190" rx="80" fill="rgba(0,100,40,0.5)" stroke="rgba(255,255,255,0.1)" stroke-width="1.5"/><g transform="rotate(0,100,80)"><rect x="65" y="30" width="70" height="95" rx="7" fill="#c0392b" stroke="rgba(255,255,255,0.3)" stroke-width="1.5"/><text x="74" y="52" font-family="serif" font-size="16" fill="white" font-weight="bold">A</text><text x="100" y="90" font-family="serif" font-size="42" text-anchor="middle" fill="white">♠</text></g><g transform="rotate(0,185,80)"><rect x="150" y="30" width="70" height="95" rx="7" fill="#c0392b" stroke="rgba(255,255,255,0.3)" stroke-width="1.5"/><text x="159" y="52" font-family="serif" font-size="16" fill="white" font-weight="bold">K</text><text x="185" y="90" font-family="serif" font-size="42" text-anchor="middle" fill="white">♥</text></g><g transform="rotate(5,275,100)"><rect x="240" y="50" width="70" height="95" rx="7" fill="#2c3e50" stroke="rgba(255,255,255,0.3)" stroke-width="1.5"/><rect x="245" y="55" width="60" height="85" rx="5" fill="none" stroke="rgba(255,255,255,0.15)" stroke-width="1"/><text x="275" y="103" font-size="28" text-anchor="middle" fill="rgba(255,255,255,0.2)">?</text></g><g transform="rotate(-5,315,90)"><rect x="280" y="40" width="70" height="95" rx="7" fill="#c0392b" stroke="rgba(255,255,255,0.3)" stroke-width="1.5"/><text x="289" y="62" font-family="serif" font-size="16" fill="white" font-weight="bold">4</text><text x="315" y="100" font-family="serif" font-size="42" text-anchor="middle" fill="white">♣</text></g><circle cx="200" cy="175" r="16" fill="#e74c3c" stroke="rgba(255,255,255,0.4)" stroke-width="1.5"/><text x="200" y="180" font-size="9" text-anchor="middle" fill="white" font-weight="bold">100</text><circle cx="220" cy="172" r="16" fill="#f5c518" stroke="rgba(255,255,255,0.4)" stroke-width="1.5"/><text x="220" y="177" font-size="9" text-anchor="middle" fill="white" font-weight="bold">50</text><circle cx="240" cy="170" r="16" fill="#3498db" stroke="rgba(255,255,255,0.4)" stroke-width="1.5"/><text x="240" y="175" font-size="9" text-anchor="middle" fill="white" font-weight="bold">25</text><text x="200" y="213" font-family="Georgia,serif" font-size="14" font-weight="bold" text-anchor="middle" fill="rgba(255,255,255,0.7)" letter-spacing="3">BLACKJACK</text>
</svg>