<svg xmlns="http://www.w3.org/2000/svg" viewBox="0 0 400 225" width="400" height="225">
  <defs>
    <linearGradient id="bg" x1="0" y1="0" x2="1" y2="1">
      <stop offset="0%" stop-color="#1a1000"/>
      <stop offset="100%" stop-color="#0f0a00"/>
    </linearGradient>
  </defs>
  <rect width="400" height="225" fill="url(#bg)"/>
  <rect x="55" y="20" width="290" height="185" rx="4" fill="none" stroke="rgba(255,220,100,0.6)" stroke-width="2.5"/><rect x="90" y="45" width="220" height="135" rx="4" fill="none" stroke="rgba(255,220,100,0.6)" stroke-width="2"/><rect x="125" y="72" width="150" height="81" rx="4" fill="none" stroke="rgba(255,220,100,0.6)" stroke-width="1.5"/><line x1="200" y1="20" x2="200" y2="72" stroke="rgba(255,220,100,0.4)" stroke-width="1.5"/><line x1="200" y1="153" x2="200" y2="205" stroke="rgba(255,220,100,0.4)" stroke-width="1.5"/><line x1="55" y1="112" x2="125" y2="112" stroke="rgba(255,220,100,0.4)" stroke-width="1.5"/><line x1="275" y1="112" x2="345" y2="112" stroke="rgba(255,220,100,0.4)" stroke-width="1.5"/><circle cx="55" cy="20" r="7" fill="#e74c3c" stroke="#c0392b" stroke-width="1.5"/><circle cx="200" cy="20" r="7" fill="#f5f5f5" stroke="#aaa" stroke-width="1.5"/><circle cx="345" cy="20" r="7" fill="rgba(255,255,255,0.15)" stroke="rgba(255,255,255,0.3)" stroke-width="1.5"/><circle cx="55" cy="112" r="7" fill="#e74c3c" stroke="#c0392b" stroke-width="1.5"/><circle cx="345" cy="112" r="7" fill="#f5f5f5" stroke="#aaa" stroke-width="1.5"/><circle cx="55" cy="205" r="7" fill="rgba(255,255,255,0.15)" stroke="rgba(255,255,255,0.3)" stroke-width="1.5"/><circle cx="200" cy="205" r="7" fill="#e74c3c" stroke="#c0392b" stroke-width="1.5"/><circle cx="345" cy="205" r="7" fill="#f5f5f5" stroke="#aaa" stroke-width="1.5"/><circle cx="90" cy="45" r="7" fill="rgba(255,255,255,0.15)" stroke="rgba(255,255,255,0.3)" stroke-width="1.5"/><circle cx="200" cy="45" r="7" fill="#e74c3c" stroke="#c0392b" stroke-width="1.5"/><circle cx="310" cy="45" r="7" fill="#f5f5f5" stroke="#aaa" stroke-width="1.5"/><circle cx="90" cy="112" r="7" fill="rgba(255,255,255,0.15)" stroke="rgba(255,255,255,0.3)" stroke-width="1.5"/><circle cx="310" cy="112" r="7" fill="#e74c3c" stroke="#c0392b" stroke-width="1.5"/><circle cx="90" cy="157" r="7" fill="#f5f5f5" stroke="#aaa" stroke-width="1.5"/><circle cx="200" cy="157" r="7" fill="rgba(255,255,255,0.15)" stroke="rgba(255,255,255,0.3)" stroke-width="1.5"/><circle cx="310" cy="157" r="7" fill="#e74c3c" stroke="#c0392b" stroke-width="1.5"/><circle cx="125" cy="72" r="7" fill="#f5f5f5" stroke="#aaa" stroke-width="1.5"/><circle cx="200" cy="72" r="7" fill="rgba(255,255,255,0.15)" stroke="rgba(255,255,255,0.3)" stroke-width="1.5"/><circle cx="275" cy="72" r="7" fill="#e74c3c" stroke="#c0392b" stroke-width="1.5"/><circle cx="125" cy="112" r="7" fill="#f5f5f5" stroke="#aaa" stroke-width="1.5"/><circle cx="275" cy="112" r="7" fill="rgba(255,255,255,0.15)" stroke="rgba(255,255,255,0.3)" stroke-width="1.5"/><circle cx="125" cy="135" r="7" fill="#e74c3c" stroke="#c0392b" stroke-width="1.5"/><circle cx="200" cy="135" r="7" fill="#f5f5f5" stroke="#aaa" stroke-width="1.5"/><circle cx="275" cy="135" r="7" fill="rgba(255,255,255,0.15)" stroke="rgba(255,255,255,0.3)" stroke-width="1.5"/><text x="200" y="220" font-family="Georgia,serif" font-size="11" font-weight="bold" text-anchor="middle" fill="rgba(255,220,100,0.7)" letter-spacing="2">NINE MEN'S MORRIS</text>
</svg>