<svg xmlns="http://www.w3.org/2000/svg" viewBox="0 0 400 225" width="400" height="225">
  <defs>
    <linearGradient id="bg" x1="0" y1="0" x2="1" y2="1">
      <stop offset="0%" stop-color="#0a0a12"/>
      <stop offset="100%" stop-color="#050508"/>
    </linearGradient>
  </defs>
  <rect width="400" height="225" fill="url(#bg)"/>
  <rect x="65" y="18" width="38" height="38" rx="3" fill="#e74c3c"/><rect x="65" y="18" width="38" height="6" rx="3" fill="#ff9" opacity="0.5"/><rect x="65" y="18" width="6" height="38" rx="3" fill="#ff9" opacity="0.3"/><rect x="65" y="50" width="38" height="6" rx="3" fill="#800" opacity="0.5"/><rect x="107" y="18" width="38" height="38" rx="3" fill="#3498db"/><rect x="107" y="18" width="38" height="6" rx="3" fill="#9df" opacity="0.5"/><rect x="107" y="18" width="6" height="38" rx="3" fill="#9df" opacity="0.3"/><rect x="107" y="50" width="38" height="6" rx="3" fill="#00f" opacity="0.5"/><rect x="149" y="18" width="38" height="38" rx="3" fill="#2ecc71"/><rect x="149" y="18" width="38" height="6" rx="3" fill="#9f9" opacity="0.5"/><rect x="149" y="18" width="6" height="38" rx="3" fill="#9f9" opacity="0.3"/><rect x="149" y="50" width="38" height="6" rx="3" fill="#060" opacity="0.5"/><rect x="191" y="18" width="38" height="38" rx="3" fill="#e74c3c"/><rect x="191" y="18" width="38" height="6" rx="3" fill="#ff9" opacity="0.5"/><rect x="191" y="18" width="6" height="38" rx="3" fill="#ff9" opacity="0.3"/><rect x="191" y="50" width="38" height="6" rx="3" fill="#800" opacity="0.5"/><rect x="233" y="18" width="38" height="38" rx="3" fill="#f39c12"/><rect x="233" y="18" width="38" height="6" rx="3" fill="#ffe" opacity="0.5"/><rect x="233" y="18" width="6" height="38" rx="3" fill="#ffe" opacity="0.3"/><rect x="233" y="50" width="38" height="6" rx="3" fill="#840" opacity="0.5"/><rect x="275" y="18" width="38" height="38" rx="3" fill="#9b59b6"/><rect x="275" y="18" width="38" height="6" rx="3" fill="#dbf" opacity="0.5"/><rect x="275" y="18" width="6" height="38" rx="3" fill="#dbf" opacity="0.3"/><rect x="275" y="50" width="38" height="6" rx="3" fill="#408" opacity="0.5"/><rect x="65" y="60" width="38" height="38" rx="3" fill="#3498db"/><rect x="65" y="60" width="38" height="6" rx="3" fill="#9df" opacity="0.5"/><rect x="65" y="60" width="6" height="38" rx="3" fill="#9df" opacity="0.3"/><rect x="65" y="92" width="38" height="6" rx="3" fill="#00f" opacity="0.5"/><rect x="107" y="60" width="38" height="38" rx="3" fill="#2ecc71"/><rect x="107" y="60" width="38" height="6" rx="3" fill="#9f9" opacity="0.5"/><rect x="107" y="60" width="6" height="38" rx="3" fill="#9f9" opacity="0.3"/><rect x="107" y="92" width="38" height="6" rx="3" fill="#060" opacity="0.5"/><rect x="149" y="60" width="38" height="38" rx="3" fill="#9b59b6"/><rect x="149" y="60" width="38" height="6" rx="3" fill="#dbf" opacity="0.5"/><rect x="149" y="60" width="6" height="38" rx="3" fill="#dbf" opacity="0.3"/><rect x="149" y="92" width="38" height="6" rx="3" fill="#408" opacity="0.5"/><rect x="191" y="60" width="38" height="38" rx="3" fill="#2ecc71"/><rect x="191" y="60" width="38" height="6" rx="3" fill="#9f9" opacity="0.5"/><rect x="191" y="60" width="6" height="38" rx="3" fill="#9f9" opacity="0.3"/><rect x="191" y="92" width="38" height="6" rx="3" fill="#060" opacity="0.5"/><rect x="233" y="60" width="38" height="38" rx="3" fill="#3498db"/><rect x="233" y="60" width="38" height="6" rx="3" fill="#9df" opacity="0.5"/><rect x="233" y="60" width="6" height="38" rx="3" fill="#9df" opacity="0.3"/><rect x="233" y="92" width="38" height="6" rx="3" fill="#00f" opacity="0.5"/><rect x="275" y="60" width="38" height="38" rx="3" fill="#e74c3c"/><rect x="275" y="60" width="38" height="6" rx="3" fill="#ff9" opacity="0.5"/><rect x="275" y="60" width="6" height="38" rx="3" fill="#ff9" opacity="0.3"/><rect x="275" y="92" width="38" height="6" rx="3" fill="#800" opacity="0.5"/><rect x="65" y="102" width="38" height="38" rx="3" fill="#f39c12"/><rect x="65" y="102" width="38" height="6" rx="3" fill="#ffe" opacity="0.5"/><rect x="65" y="102" width="6" height="38" rx="3" fill="#ffe" opacity="0.3"/><rect x="65" y="134" width="38" height="6" rx="3" fill="#840" opacity="0.5"/><rect x="107" y="102" width="38" height="38" rx="3" fill="#e74c3c"/><rect x="107" y="102" width="38" height="6" rx="3" fill="#ff9" opacity="0.5"/><rect x="107" y="102" width="6" height="38" rx="3" fill="#ff9" opacity="0.3"/><rect x="107" y="134" width="38" height="6" rx="3" fill="#800" opacity="0.5"/><rect x="149" y="102" width="38" height="38" rx="3" fill="#3498db"/><rect x="149" y="102" width="38" height="6" rx="3" fill="#9df" opacity="0.5"/><rect x="149" y="102" width="6" height="38" rx="3" fill="#9df" opacity="0.3"/><rect x="149" y="134" width="38" height="6" rx="3" fill="#00f" opacity="0.5"/><rect x="191" y="102" width="38" height="38" rx="3" fill="#9b59b6"/><rect x="191" y="102" width="38" height="6" rx="3" fill="#dbf" opacity="0.5"/><rect x="191" y="102" width="6" height="38" rx="3" fill="#dbf" opacity="0.3"/><rect x="191" y="134" width="38" height="6" rx="3" fill="#408" opacity="0.5"/><rect x="233" y="102" width="38" height="38" rx="3" fill="#2ecc71"/><rect x="233" y="102" width="38" height="6" rx="3" fill="#9f9" opacity="0.5"/><rect x="233" y="102" width="6" height="38" rx="3" fill="#9f9" opacity="0.3"/><rect x="233" y="134" width="38" height="6" rx="3" fill="#060" opacity="0.5"/><rect x="275" y="102" width="38" height="38" rx="3" fill="#f39c12"/><rect x="275" y="102" width="38" height="6" rx="3" fill="#ffe" opacity="0.5"/><rect x="275" y="102" width="6" height="38" rx="3" fill="#ffe" opacity="0.3"/><rect x="275" y="134" width="38" height="6" rx="3" fill="#840" opacity="0.5"/><rect x="149" y="160" width="38" height="38" rx="3" fill="#e74c3c"/><rect x="149" y="160" width="38" height="6" rx="3" fill="#ff9" opacity="0.5"/><rect x="149" y="160" width="6" height="38" rx="3" fill="#ff9" opacity="0.3"/><rect x="149" y="192" width="38" height="6" rx="3" fill="#800" opacity="0.5"/><text x="200" y="213" font-family="Georgia,serif" font-size="13" font-weight="bold" text-anchor="middle" fill="rgba(255,255,255,0.7)" letter-spacing="2">FALLING CUBES</text>
</svg>