<svg xmlns="http://www.w3.org/2000/svg" viewBox="0 0 400 225" width="400" height="225">
  <defs>
    <linearGradient id="bg" x1="0" y1="0" x2="1" y2="1">
      <stop offset="0%" stop-color="#05050f"/>
      <stop offset="100%" stop-color="#010108"/>
    </linearGradient>
  </defs>
  <rect width="400" height="225" fill="url(#bg)"/>
  <rect x="44" y="18" width="42" height="24" rx="3" fill="#e74c3c" stroke="rgba(0,0,0,0.2)" stroke-width="1"/><rect x="44" y="18" width="42" height="5" rx="3" fill="rgba(255,255,255,0.25)"/><rect x="90" y="18" width="42" height="24" rx="3" fill="#e67e22" stroke="rgba(0,0,0,0.2)" stroke-width="1"/><rect x="90" y="18" width="42" height="5" rx="3" fill="rgba(255,255,255,0.25)"/><rect x="136" y="18" width="42" height="24" rx="3" fill="#f1c40f" stroke="rgba(0,0,0,0.2)" stroke-width="1"/><rect x="136" y="18" width="42" height="5" rx="3" fill="rgba(255,255,255,0.25)"/><rect x="228" y="18" width="42" height="24" rx="3" fill="#3498db" stroke="rgba(0,0,0,0.2)" stroke-width="1"/><rect x="228" y="18" width="42" height="5" rx="3" fill="rgba(255,255,255,0.25)"/><rect x="274" y="18" width="42" height="24" rx="3" fill="#9b59b6" stroke="rgba(0,0,0,0.2)" stroke-width="1"/><rect x="274" y="18" width="42" height="5" rx="3" fill="rgba(255,255,255,0.25)"/><rect x="320" y="18" width="42" height="24" rx="3" fill="#e74c3c" stroke="rgba(0,0,0,0.2)" stroke-width="1"/><rect x="320" y="18" width="42" height="5" rx="3" fill="rgba(255,255,255,0.25)"/><rect x="44" y="46" width="42" height="24" rx="3" fill="#e67e22" stroke="rgba(0,0,0,0.2)" stroke-width="1"/><rect x="44" y="46" width="42" height="5" rx="3" fill="rgba(255,255,255,0.25)"/><rect x="90" y="46" width="42" height="24" rx="3" fill="#f1c40f" stroke="rgba(0,0,0,0.2)" stroke-width="1"/><rect x="90" y="46" width="42" height="5" rx="3" fill="rgba(255,255,255,0.25)"/><rect x="182" y="46" width="42" height="24" rx="3" fill="#3498db" stroke="rgba(0,0,0,0.2)" stroke-width="1"/><rect x="182" y="46" width="42" height="5" rx="3" fill="rgba(255,255,255,0.25)"/><rect x="228" y="46" width="42" height="24" rx="3" fill="#9b59b6" stroke="rgba(0,0,0,0.2)" stroke-width="1"/><rect x="228" y="46" width="42" height="5" rx="3" fill="rgba(255,255,255,0.25)"/><rect x="274" y="46" width="42" height="24" rx="3" fill="#e74c3c" stroke="rgba(0,0,0,0.2)" stroke-width="1"/><rect x="274" y="46" width="42" height="5" rx="3" fill="rgba(255,255,255,0.25)"/><rect x="320" y="46" width="42" height="24" rx="3" fill="#e67e22" stroke="rgba(0,0,0,0.2)" stroke-width="1"/><rect x="320" y="46" width="42" height="5" rx="3" fill="rgba(255,255,255,0.25)"/><rect x="44" y="74" width="42" height="24" rx="3" fill="#f1c40f" stroke="rgba(0,0,0,0.2)" stroke-width="1"/><rect x="44" y="74" width="42" height="5" rx="3" fill="rgba(255,255,255,0.25)"/><rect x="136" y="74" width="42" height="24" rx="3" fill="#3498db" stroke="rgba(0,0,0,0.2)" stroke-width="1"/><rect x="136" y="74" width="42" height="5" rx="3" fill="rgba(255,255,255,0.25)"/><rect x="182" y="74" width="42" height="24" rx="3" fill="#9b59b6" stroke="rgba(0,0,0,0.2)" stroke-width="1"/><rect x="182" y="74" width="42" height="5" rx="3" fill="rgba(255,255,255,0.25)"/><rect x="228" y="74" width="42" height="24" rx="3" fill="#e74c3c" stroke="rgba(0,0,0,0.2)" stroke-width="1"/><rect x="228" y="74" width="42" height="5" rx="3" fill="rgba(255,255,255,0.25)"/><rect x="274" y="74" width="42" height="24" rx="3" fill="#e67e22" stroke="rgba(0,0,0,0.2)" stroke-width="1"/><rect x="274" y="74" width="42" height="5" rx="3" fill="rgba(255,255,255,0.25)"/><rect x="320" y="74" width="42" height="24" rx="3" fill="#f1c40f" stroke="rgba(0,0,0,0.2)" stroke-width="1"/><rect x="320" y="74" width="42" height="5" rx="3" fill="rgba(255,255,255,0.25)"/><rect x="90" y="102" width="42" height="24" rx="3" fill="#3498db" stroke="rgba(0,0,0,0.2)" stroke-width="1"/><rect x="90" y="102" width="42" height="5" rx="3" fill="rgba(255,255,255,0.25)"/><rect x="136" y="102" width="42" height="24" rx="3" fill="#9b59b6" stroke="rgba(0,0,0,0.2)" stroke-width="1"/><rect x="136" y="102" width="42" height="5" rx="3" fill="rgba(255,255,255,0.25)"/><rect x="182" y="102" width="42" height="24" rx="3" fill="#e74c3c" stroke="rgba(0,0,0,0.2)" stroke-width="1"/><rect x="182" y="102" width="42" height="5" rx="3" fill="rgba(255,255,255,0.25)"/><rect x="228" y="102" width="42" height="24" rx="3" fill="#e67e22" stroke="rgba(0,0,0,0.2)" stroke-width="1"/><rect x="228" y="102" width="42" height="5" rx="3" fill="rgba(255,255,255,0.25)"/><rect x="274" y="102" width="42" height="24" rx="3" fill="#f1c40f" stroke="rgba(0,0,0,0.2)" stroke-width="1"/><rect x="274" y="102" width="42" height="5" rx="3" fill="rgba(255,255,255,0.25)"/><rect x="320" y="102" width="42" height="24" rx="3" fill="#2ecc71" stroke="rgba(0,0,0,0.2)" stroke-width="1"/><rect x="320" y="102" width="42" height="5" rx="3" fill="rgba(255,255,255,0.25)"/><rect x="44" y="130" width="42" height="24" rx="3" fill="#3498db" stroke="rgba(0,0,0,0.2)" stroke-width="1"/><rect x="44" y="130" width="42" height="5" rx="3" fill="rgba(255,255,255,0.25)"/><rect x="90" y="130" width="42" height="24" rx="3" fill="#9b59b6" stroke="rgba(0,0,0,0.2)" stroke-width="1"/><rect x="90" y="130" width="42" height="5" rx="3" fill="rgba(255,255,255,0.25)"/><rect x="136" y="130" width="42" height="24" rx="3" fill="#e74c3c" stroke="rgba(0,0,0,0.2)" stroke-width="1"/><rect x="136" y="130" width="42" height="5" rx="3" fill="rgba(255,255,255,0.25)"/><rect x="182" y="130" width="42" height="24" rx="3" fill="#e67e22" stroke="rgba(0,0,0,0.2)" stroke-width="1"/><rect x="182" y="130" width="42" height="5" rx="3" fill="rgba(255,255,255,0.25)"/><rect x="228" y="130" width="42" height="24" rx="3" fill="#f1c40f" stroke="rgba(0,0,0,0.2)" stroke-width="1"/><rect x="228" y="130" width="42" height="5" rx="3" fill="rgba(255,255,255,0.25)"/><rect x="274" y="130" width="42" height="24" rx="3" fill="#2ecc71" stroke="rgba(0,0,0,0.2)" stroke-width="1"/><rect x="274" y="130" width="42" height="5" rx="3" fill="rgba(255,255,255,0.25)"/><circle cx="178" cy="165" r="5" fill="white" opacity="0.3"/><circle cx="172" cy="171" r="3" fill="white" opacity="0.15"/><circle cx="185" cy="158" r="10" fill="white" opacity="0.9"/><rect x="130" y="178" width="100" height="14" rx="7" fill="#3498db" stroke="rgba(255,255,255,0.3)" stroke-width="1.5"/><text x="200" y="213" font-family="Georgia,serif" font-size="12" font-weight="bold" text-anchor="middle" fill="rgba(255,255,255,0.7)" letter-spacing="2">BRICK BREAKOUT</text>
</svg>