<svg xmlns="http://www.w3.org/2000/svg" viewBox="0 0 400 225" width="400" height="225">
  <defs>
    <linearGradient id="bg" x1="0" y1="0" x2="1" y2="1">
      <stop offset="0%" stop-color="#2a1050"/>
      <stop offset="100%" stop-color="#180830"/>
    </linearGradient>
  </defs>
  <rect width="400" height="225" fill="url(#bg)"/>
  <rect x="87" y="22" width="46" height="36" fill="rgba(255,255,255,0.18)"/><rect x="133" y="22" width="46" height="36" fill="rgba(0,0,0,0.25)"/><rect x="179" y="22" width="46" height="36" fill="rgba(255,255,255,0.18)"/><rect x="225" y="22" width="46" height="36" fill="rgba(0,0,0,0.25)"/><rect x="271" y="22" width="46" height="36" fill="rgba(255,255,255,0.18)"/><rect x="87" y="58" width="46" height="36" fill="rgba(0,0,0,0.25)"/><rect x="133" y="58" width="46" height="36" fill="rgba(255,255,255,0.18)"/><rect x="179" y="58" width="46" height="36" fill="rgba(0,0,0,0.25)"/><rect x="225" y="58" width="46" height="36" fill="rgba(255,255,255,0.18)"/><rect x="271" y="58" width="46" height="36" fill="rgba(0,0,0,0.25)"/><rect x="87" y="94" width="46" height="36" fill="rgba(255,255,255,0.18)"/><rect x="133" y="94" width="46" height="36" fill="rgba(0,0,0,0.25)"/><rect x="179" y="94" width="46" height="36" fill="rgba(255,255,255,0.18)"/><rect x="225" y="94" width="46" height="36" fill="rgba(0,0,0,0.25)"/><rect x="271" y="94" width="46" height="36" fill="rgba(255,255,255,0.18)"/><rect x="87" y="130" width="46" height="36" fill="rgba(0,0,0,0.25)"/><rect x="133" y="130" width="46" height="36" fill="rgba(255,255,255,0.18)"/><rect x="179" y="130" width="46" height="36" fill="rgba(0,0,0,0.25)"/><rect x="225" y="130" width="46" height="36" fill="rgba(255,255,255,0.18)"/><rect x="271" y="130" width="46" height="36" fill="rgba(0,0,0,0.25)"/><rect x="87" y="166" width="46" height="36" fill="rgba(255,255,255,0.18)"/><rect x="133" y="166" width="46" height="36" fill="rgba(0,0,0,0.25)"/><rect x="179" y="166" width="46" height="36" fill="rgba(255,255,255,0.18)"/><rect x="225" y="166" width="46" height="36" fill="rgba(0,0,0,0.25)"/><rect x="271" y="166" width="46" height="36" fill="rgba(255,255,255,0.18)"/><text x="110" y="49" font-family="serif" font-size="22" text-anchor="middle" fill="#1a1a2e">♜</text><text x="156" y="49" font-family="serif" font-size="22" text-anchor="middle" fill="#1a1a2e">♞</text><text x="202" y="49" font-family="serif" font-size="22" text-anchor="middle" fill="#1a1a2e">♛</text><text x="248" y="49" font-family="serif" font-size="22" text-anchor="middle" fill="#1a1a2e">♚</text><text x="294" y="49" font-family="serif" font-size="22" text-anchor="middle" fill="#1a1a2e">♝</text><text x="110" y="85" font-family="serif" font-size="22" text-anchor="middle" fill="#1a1a2e">♟</text><text x="156" y="85" font-family="serif" font-size="22" text-anchor="middle" fill="#1a1a2e">♟</text><text x="202" y="85" font-family="serif" font-size="22" text-anchor="middle" fill="#1a1a2e">♟</text><text x="248" y="85" font-family="serif" font-size="22" text-anchor="middle" fill="#1a1a2e">♟</text><text x="294" y="85" font-family="serif" font-size="22" text-anchor="middle" fill="#1a1a2e">♟</text><text x="110" y="193" font-family="serif" font-size="22" text-anchor="middle" fill="white">♙</text><text x="156" y="193" font-family="serif" font-size="22" text-anchor="middle" fill="white">♙</text><text x="202" y="193" font-family="serif" font-size="22" text-anchor="middle" fill="white">♙</text><text x="248" y="193" font-family="serif" font-size="22" text-anchor="middle" fill="white">♙</text><text x="294" y="193" font-family="serif" font-size="22" text-anchor="middle" fill="white">♙</text><text x="110" y="229" font-family="serif" font-size="22" text-anchor="middle" fill="white">♖</text><text x="156" y="229" font-family="serif" font-size="22" text-anchor="middle" fill="white">♘</text><text x="202" y="229" font-family="serif" font-size="22" text-anchor="middle" fill="white">♕</text><text x="248" y="229" font-family="serif" font-size="22" text-anchor="middle" fill="white">♔</text><text x="294" y="229" font-family="serif" font-size="22" text-anchor="middle" fill="white">♗</text><text x="200" y="213" font-family="Georgia,serif" font-size="13" font-weight="bold" text-anchor="middle" fill="rgba(255,255,255,0.7)" letter-spacing="2">MINI CHESS</text>
</svg>