<svg xmlns="http://www.w3.org/2000/svg" viewBox="0 0 400 225" width="400" height="225">
  <defs>
    <linearGradient id="bg" x1="0" y1="0" x2="1" y2="1">
      <stop offset="0%" stop-color="#2c1810"/>
      <stop offset="100%" stop-color="#180e08"/>
    </linearGradient>
  </defs>
  <rect width="400" height="225" fill="url(#bg)"/>
  <rect x="62" y="18" width="40" height="28" fill="#c0392b"/><rect x="102" y="18" width="40" height="28" fill="rgba(255,255,255,0.08)"/><rect x="142" y="18" width="40" height="28" fill="#c0392b"/><rect x="182" y="18" width="40" height="28" fill="rgba(255,255,255,0.08)"/><rect x="222" y="18" width="40" height="28" fill="#c0392b"/><rect x="262" y="18" width="40" height="28" fill="rgba(255,255,255,0.08)"/><rect x="302" y="18" width="40" height="28" fill="#c0392b"/><rect x="62" y="46" width="40" height="28" fill="rgba(255,255,255,0.08)"/><rect x="102" y="46" width="40" height="28" fill="#c0392b"/><rect x="142" y="46" width="40" height="28" fill="rgba(255,255,255,0.08)"/><rect x="182" y="46" width="40" height="28" fill="#c0392b"/><rect x="222" y="46" width="40" height="28" fill="rgba(255,255,255,0.08)"/><rect x="262" y="46" width="40" height="28" fill="#c0392b"/><rect x="302" y="46" width="40" height="28" fill="rgba(255,255,255,0.08)"/><rect x="62" y="74" width="40" height="28" fill="#c0392b"/><rect x="102" y="74" width="40" height="28" fill="rgba(255,255,255,0.08)"/><rect x="142" y="74" width="40" height="28" fill="#c0392b"/><rect x="182" y="74" width="40" height="28" fill="rgba(255,255,255,0.08)"/><rect x="222" y="74" width="40" height="28" fill="#c0392b"/><rect x="262" y="74" width="40" height="28" fill="rgba(255,255,255,0.08)"/><rect x="302" y="74" width="40" height="28" fill="#c0392b"/><rect x="62" y="102" width="40" height="28" fill="rgba(255,255,255,0.08)"/><rect x="102" y="102" width="40" height="28" fill="#c0392b"/><rect x="142" y="102" width="40" height="28" fill="rgba(255,255,255,0.08)"/><rect x="182" y="102" width="40" height="28" fill="#c0392b"/><rect x="222" y="102" width="40" height="28" fill="rgba(255,255,255,0.08)"/><rect x="262" y="102" width="40" height="28" fill="#c0392b"/><rect x="302" y="102" width="40" height="28" fill="rgba(255,255,255,0.08)"/><rect x="62" y="130" width="40" height="28" fill="#c0392b"/><rect x="102" y="130" width="40" height="28" fill="rgba(255,255,255,0.08)"/><rect x="142" y="130" width="40" height="28" fill="#c0392b"/><rect x="182" y="130" width="40" height="28" fill="rgba(255,255,255,0.08)"/><rect x="222" y="130" width="40" height="28" fill="#c0392b"/><rect x="262" y="130" width="40" height="28" fill="rgba(255,255,255,0.08)"/><rect x="302" y="130" width="40" height="28" fill="#c0392b"/><rect x="62" y="158" width="40" height="28" fill="rgba(255,255,255,0.08)"/><rect x="102" y="158" width="40" height="28" fill="#c0392b"/><rect x="142" y="158" width="40" height="28" fill="rgba(255,255,255,0.08)"/><rect x="182" y="158" width="40" height="28" fill="#c0392b"/><rect x="222" y="158" width="40" height="28" fill="rgba(255,255,255,0.08)"/><rect x="262" y="158" width="40" height="28" fill="#c0392b"/><rect x="302" y="158" width="40" height="28" fill="rgba(255,255,255,0.08)"/><rect x="62" y="186" width="40" height="28" fill="#c0392b"/><rect x="102" y="186" width="40" height="28" fill="rgba(255,255,255,0.08)"/><rect x="142" y="186" width="40" height="28" fill="#c0392b"/><rect x="182" y="186" width="40" height="28" fill="rgba(255,255,255,0.08)"/><rect x="222" y="186" width="40" height="28" fill="#c0392b"/><rect x="262" y="186" width="40" height="28" fill="rgba(255,255,255,0.08)"/><rect x="302" y="186" width="40" height="28" fill="#c0392b"/><circle cx="82" cy="32" r="11" fill="#f0d9c0" stroke="rgba(0,0,0,0.3)" stroke-width="1.5"/><circle cx="82" cy="32" r="7" fill="none" stroke="rgba(0,0,0,0.15)" stroke-width="1"/><circle cx="162" cy="32" r="11" fill="#f0d9c0" stroke="rgba(0,0,0,0.3)" stroke-width="1.5"/><circle cx="162" cy="32" r="7" fill="none" stroke="rgba(0,0,0,0.15)" stroke-width="1"/><circle cx="242" cy="32" r="11" fill="#f0d9c0" stroke="rgba(0,0,0,0.3)" stroke-width="1.5"/><circle cx="242" cy="32" r="7" fill="none" stroke="rgba(0,0,0,0.15)" stroke-width="1"/><circle cx="122" cy="60" r="11" fill="#f0d9c0" stroke="rgba(0,0,0,0.3)" stroke-width="1.5"/><circle cx="122" cy="60" r="7" fill="none" stroke="rgba(0,0,0,0.15)" stroke-width="1"/><circle cx="202" cy="60" r="11" fill="#f0d9c0" stroke="rgba(0,0,0,0.3)" stroke-width="1.5"/><circle cx="202" cy="60" r="7" fill="none" stroke="rgba(0,0,0,0.15)" stroke-width="1"/><circle cx="282" cy="60" r="11" fill="#f0d9c0" stroke="rgba(0,0,0,0.3)" stroke-width="1.5"/><circle cx="282" cy="60" r="7" fill="none" stroke="rgba(0,0,0,0.15)" stroke-width="1"/><circle cx="82" cy="144" r="11" fill="#2c3e50" stroke="rgba(0,0,0,0.3)" stroke-width="1.5"/><circle cx="82" cy="144" r="7" fill="none" stroke="rgba(0,0,0,0.15)" stroke-width="1"/><circle cx="162" cy="144" r="11" fill="#2c3e50" stroke="rgba(0,0,0,0.3)" stroke-width="1.5"/><circle cx="162" cy="144" r="7" fill="none" stroke="rgba(0,0,0,0.15)" stroke-width="1"/><circle cx="122" cy="172" r="11" fill="#2c3e50" stroke="rgba(0,0,0,0.3)" stroke-width="1.5"/><circle cx="122" cy="172" r="7" fill="none" stroke="rgba(0,0,0,0.15)" stroke-width="1"/><circle cx="202" cy="172" r="11" fill="#2c3e50" stroke="rgba(0,0,0,0.3)" stroke-width="1.5"/><circle cx="202" cy="172" r="7" fill="none" stroke="rgba(0,0,0,0.15)" stroke-width="1"/><circle cx="282" cy="172" r="11" fill="#2c3e50" stroke="rgba(0,0,0,0.3)" stroke-width="1.5"/><circle cx="282" cy="172" r="7" fill="none" stroke="rgba(0,0,0,0.15)" stroke-width="1"/><text x="200" y="213" font-family="Georgia,serif" font-size="14" font-weight="bold" text-anchor="middle" fill="rgba(255,255,255,0.7)" letter-spacing="3">CHECKERS</text>
</svg>