<svg xmlns="http://www.w3.org/2000/svg" viewBox="0 0 400 225" width="400" height="225">
  <defs>
    <linearGradient id="bg" x1="0" y1="0" x2="1" y2="1">
      <stop offset="0%" stop-color="#0a1e3a"/>
      <stop offset="100%" stop-color="#061428"/>
    </linearGradient>
  </defs>
  <rect width="400" height="225" fill="url(#bg)"/>
  <rect x="50" y="20" width="140" height="140" rx="4" fill="rgba(0,80,160,0.5)" stroke="rgba(255,255,255,0.2)" stroke-width="1"/><line x1="50" y1="20" x2="190" y2="20" stroke="rgba(255,255,255,0.15)" stroke-width="0.5"/><line x1="50" y1="20" x2="50" y2="160" stroke="rgba(255,255,255,0.15)" stroke-width="0.5"/><line x1="50" y1="48" x2="190" y2="48" stroke="rgba(255,255,255,0.15)" stroke-width="0.5"/><line x1="78" y1="20" x2="78" y2="160" stroke="rgba(255,255,255,0.15)" stroke-width="0.5"/><line x1="50" y1="76" x2="190" y2="76" stroke="rgba(255,255,255,0.15)" stroke-width="0.5"/><line x1="106" y1="20" x2="106" y2="160" stroke="rgba(255,255,255,0.15)" stroke-width="0.5"/><line x1="50" y1="104" x2="190" y2="104" stroke="rgba(255,255,255,0.15)" stroke-width="0.5"/><line x1="134" y1="20" x2="134" y2="160" stroke="rgba(255,255,255,0.15)" stroke-width="0.5"/><line x1="50" y1="132" x2="190" y2="132" stroke="rgba(255,255,255,0.15)" stroke-width="0.5"/><line x1="162" y1="20" x2="162" y2="160" stroke="rgba(255,255,255,0.15)" stroke-width="0.5"/><line x1="50" y1="160" x2="190" y2="160" stroke="rgba(255,255,255,0.15)" stroke-width="0.5"/><line x1="190" y1="20" x2="190" y2="160" stroke="rgba(255,255,255,0.15)" stroke-width="0.5"/><circle cx="106" cy="48" r="8" fill="#e74c3c" opacity="0.9"/><circle cx="134" cy="76" r="8" fill="#e74c3c" opacity="0.9"/><circle cx="78" cy="76" r="6" fill="none" stroke="white" stroke-width="1.5" opacity="0.7"/><circle cx="162" cy="104" r="6" fill="none" stroke="white" stroke-width="1.5" opacity="0.7"/><rect x="215" y="60" width="140" height="30" rx="6" fill="rgba(100,130,160,0.9)" stroke="rgba(255,255,255,0.3)" stroke-width="1.5"/><rect x="240" y="40" width="60" height="20" rx="4" fill="rgba(80,110,140,0.9)" stroke="rgba(255,255,255,0.2)" stroke-width="1"/><circle cx="270" cy="30" r="5" fill="rgba(200,200,200,0.7)"/><text x="200" y="213" font-family="Georgia,serif" font-size="13" font-weight="bold" text-anchor="middle" fill="rgba(255,255,255,0.7)" letter-spacing="2">BATTLESHIP</text>
</svg>