<svg xmlns="http://www.w3.org/2000/svg" viewBox="0 0 400 225" width="400" height="225">
  <defs>
    <linearGradient id="bg" x1="0" y1="0" x2="1" y2="1">
      <stop offset="0%" stop-color="#1a2744"/>
      <stop offset="100%" stop-color="#0d1b3e"/>
    </linearGradient>
  </defs>
  <rect width="400" height="225" fill="url(#bg)"/>
  <rect x="110" y="30" width="30" height="28" fill="rgba(255,255,255,0.18)" rx="2"/><rect x="170" y="30" width="30" height="28" fill="rgba(255,255,255,0.18)" rx="2"/><rect x="230" y="30" width="30" height="28" fill="rgba(255,255,255,0.18)" rx="2"/><rect x="140" y="58" width="30" height="28" fill="rgba(255,255,255,0.18)" rx="2"/><rect x="200" y="58" width="30" height="28" fill="rgba(255,255,255,0.18)" rx="2"/><rect x="260" y="58" width="30" height="28" fill="rgba(255,255,255,0.18)" rx="2"/><rect x="110" y="86" width="30" height="28" fill="rgba(255,255,255,0.18)" rx="2"/><rect x="170" y="86" width="30" height="28" fill="rgba(255,255,255,0.18)" rx="2"/><rect x="230" y="86" width="30" height="28" fill="rgba(255,255,255,0.18)" rx="2"/><rect x="140" y="114" width="30" height="28" fill="rgba(255,255,255,0.18)" rx="2"/><rect x="200" y="114" width="30" height="28" fill="rgba(255,255,255,0.18)" rx="2"/><rect x="260" y="114" width="30" height="28" fill="rgba(255,255,255,0.18)" rx="2"/><rect x="110" y="142" width="30" height="28" fill="rgba(255,255,255,0.18)" rx="2"/><rect x="170" y="142" width="30" height="28" fill="rgba(255,255,255,0.18)" rx="2"/><rect x="230" y="142" width="30" height="28" fill="rgba(255,255,255,0.18)" rx="2"/><rect x="140" y="170" width="30" height="28" fill="rgba(255,255,255,0.18)" rx="2"/><rect x="200" y="170" width="30" height="28" fill="rgba(255,255,255,0.18)" rx="2"/><rect x="260" y="170" width="30" height="28" fill="rgba(255,255,255,0.18)" rx="2"/>
    <text x="200" y="148" font-family="serif" font-size="72" text-anchor="middle" fill="white" opacity="0.95">♔</text>
    <text x="138" y="120" font-family="serif" font-size="40" text-anchor="middle" fill="rgba(255,255,255,0.6)">♞</text>
    <text x="262" y="120" font-family="serif" font-size="40" text-anchor="middle" fill="rgba(255,255,255,0.6)">♜</text>
    <text x="200" y="210" font-family="Georgia,serif" font-size="15" font-weight="bold" text-anchor="middle" fill="rgba(255,255,255,0.7)" letter-spacing="3">CHESS</text>
</svg>