<svg xmlns="http://www.w3.org/2000/svg" viewBox="0 0 400 225" width="400" height="225">
  <defs>
    <linearGradient id="bg" x1="0" y1="0" x2="1" y2="1">
      <stop offset="0%" stop-color="#1a3050"/>
      <stop offset="100%" stop-color="#0d1e38"/>
    </linearGradient>
  </defs>
  <rect width="400" height="225" fill="url(#bg)"/>
  <g transform="rotate(0,85,50)"><rect x="50" y="30" width="70" height="40" rx="5" fill="#f5f0e8" stroke="#aaa" stroke-width="1.5"/><line x1="85" y1="35" x2="85" y2="65" stroke="#aaa" stroke-width="1"/><circle cx="62" cy="44" r="2.5" fill="#333"/><circle cx="72" cy="44" r="2.5" fill="#333"/><circle cx="62" cy="50" r="2.5" fill="#333"/><circle cx="72" cy="50" r="2.5" fill="#333"/><circle cx="62" cy="56" r="2.5" fill="#333"/><circle cx="72" cy="56" r="2.5" fill="#333"/><circle cx="98" cy="45" r="2.5" fill="#333"/><circle cx="108" cy="45" r="2.5" fill="#333"/><circle cx="98" cy="55" r="2.5" fill="#333"/><circle cx="108" cy="55" r="2.5" fill="#333"/></g><g transform="rotate(-10,180,70)"><rect x="145" y="50" width="70" height="40" rx="5" fill="#f5f0e8" stroke="#aaa" stroke-width="1.5"/><line x1="180" y1="55" x2="180" y2="85" stroke="#aaa" stroke-width="1"/><circle cx="157" cy="65" r="2.5" fill="#333"/><circle cx="162" cy="70" r="2.5" fill="#333"/><circle cx="167" cy="75" r="2.5" fill="#333"/><circle cx="193" cy="65" r="2.5" fill="#333"/><circle cx="203" cy="65" r="2.5" fill="#333"/><circle cx="198" cy="70" r="2.5" fill="#333"/><circle cx="193" cy="75" r="2.5" fill="#333"/><circle cx="203" cy="75" r="2.5" fill="#333"/></g><g transform="rotate(8,275,45)"><rect x="240" y="25" width="70" height="40" rx="5" fill="#f5f0e8" stroke="#aaa" stroke-width="1.5"/><line x1="275" y1="30" x2="275" y2="60" stroke="#aaa" stroke-width="1"/><circle cx="257" cy="45" r="2.5" fill="#333"/><circle cx="288" cy="39" r="2.5" fill="#333"/><circle cx="298" cy="39" r="2.5" fill="#333"/><circle cx="288" cy="45" r="2.5" fill="#333"/><circle cx="298" cy="45" r="2.5" fill="#333"/><circle cx="288" cy="51" r="2.5" fill="#333"/><circle cx="298" cy="51" r="2.5" fill="#333"/></g><g transform="rotate(-5,125,160)"><rect x="90" y="140" width="70" height="40" rx="5" fill="#f5f0e8" stroke="#aaa" stroke-width="1.5"/><line x1="125" y1="145" x2="125" y2="175" stroke="#aaa" stroke-width="1"/><circle cx="102" cy="155" r="2.5" fill="#333"/><circle cx="112" cy="165" r="2.5" fill="#333"/><circle cx="138" cy="155" r="2.5" fill="#333"/><circle cx="148" cy="165" r="2.5" fill="#333"/></g><g transform="rotate(12,235,165)"><rect x="200" y="145" width="70" height="40" rx="5" fill="#f5f0e8" stroke="#aaa" stroke-width="1.5"/><line x1="235" y1="150" x2="235" y2="180" stroke="#aaa" stroke-width="1"/><circle cx="212" cy="160" r="2.5" fill="#333"/><circle cx="222" cy="160" r="2.5" fill="#333"/><circle cx="217" cy="165" r="2.5" fill="#333"/><circle cx="212" cy="170" r="2.5" fill="#333"/><circle cx="222" cy="170" r="2.5" fill="#333"/><circle cx="248" cy="160" r="2.5" fill="#333"/><circle cx="253" cy="165" r="2.5" fill="#333"/><circle cx="258" cy="170" r="2.5" fill="#333"/></g><text x="200" y="213" font-family="Georgia,serif" font-size="14" font-weight="bold" text-anchor="middle" fill="rgba(255,255,255,0.7)" letter-spacing="3">DOMINOES</text>
</svg>