<svg xmlns="http://www.w3.org/2000/svg" viewBox="0 0 400 225" width="400" height="225">
  <defs>
    <linearGradient id="bg" x1="0" y1="0" x2="1" y2="1">
      <stop offset="0%" stop-color="#1a0a2e"/>
      <stop offset="100%" stop-color="#100618"/>
    </linearGradient>
  </defs>
  <rect width="400" height="225" fill="url(#bg)"/>
  <rect x="67" y="18" width="45" height="30" fill="#9b59b6" opacity="0.7"/><rect x="112" y="18" width="45" height="30" fill="rgba(255,255,255,0.05)" opacity="1"/><rect x="157" y="18" width="45" height="30" fill="#9b59b6" opacity="0.7"/><rect x="202" y="18" width="45" height="30" fill="rgba(255,255,255,0.05)" opacity="1"/><rect x="247" y="18" width="45" height="30" fill="#9b59b6" opacity="0.7"/><rect x="292" y="18" width="45" height="30" fill="rgba(255,255,255,0.05)" opacity="1"/><rect x="67" y="48" width="45" height="30" fill="rgba(255,255,255,0.05)" opacity="1"/><rect x="112" y="48" width="45" height="30" fill="#9b59b6" opacity="0.7"/><rect x="157" y="48" width="45" height="30" fill="rgba(255,255,255,0.05)" opacity="1"/><rect x="202" y="48" width="45" height="30" fill="#9b59b6" opacity="0.7"/><rect x="247" y="48" width="45" height="30" fill="rgba(255,255,255,0.05)" opacity="1"/><rect x="292" y="48" width="45" height="30" fill="#9b59b6" opacity="0.7"/><rect x="67" y="78" width="45" height="30" fill="#9b59b6" opacity="0.7"/><rect x="112" y="78" width="45" height="30" fill="rgba(255,255,255,0.05)" opacity="1"/><rect x="157" y="78" width="45" height="30" fill="#9b59b6" opacity="0.7"/><rect x="202" y="78" width="45" height="30" fill="rgba(255,255,255,0.05)" opacity="1"/><rect x="247" y="78" width="45" height="30" fill="#9b59b6" opacity="0.7"/><rect x="292" y="78" width="45" height="30" fill="rgba(255,255,255,0.05)" opacity="1"/><rect x="67" y="108" width="45" height="30" fill="rgba(255,255,255,0.05)" opacity="1"/><rect x="112" y="108" width="45" height="30" fill="#9b59b6" opacity="0.7"/><rect x="157" y="108" width="45" height="30" fill="rgba(255,255,255,0.05)" opacity="1"/><rect x="202" y="108" width="45" height="30" fill="#9b59b6" opacity="0.7"/><rect x="247" y="108" width="45" height="30" fill="rgba(255,255,255,0.05)" opacity="1"/><rect x="292" y="108" width="45" height="30" fill="#9b59b6" opacity="0.7"/><rect x="67" y="138" width="45" height="30" fill="#9b59b6" opacity="0.7"/><rect x="112" y="138" width="45" height="30" fill="rgba(255,255,255,0.05)" opacity="1"/><rect x="157" y="138" width="45" height="30" fill="#9b59b6" opacity="0.7"/><rect x="202" y="138" width="45" height="30" fill="rgba(255,255,255,0.05)" opacity="1"/><rect x="247" y="138" width="45" height="30" fill="#9b59b6" opacity="0.7"/><rect x="292" y="138" width="45" height="30" fill="rgba(255,255,255,0.05)" opacity="1"/><rect x="67" y="168" width="45" height="30" fill="rgba(255,255,255,0.05)" opacity="1"/><rect x="112" y="168" width="45" height="30" fill="#9b59b6" opacity="0.7"/><rect x="157" y="168" width="45" height="30" fill="rgba(255,255,255,0.05)" opacity="1"/><rect x="202" y="168" width="45" height="30" fill="#9b59b6" opacity="0.7"/><rect x="247" y="168" width="45" height="30" fill="rgba(255,255,255,0.05)" opacity="1"/><rect x="292" y="168" width="45" height="30" fill="#9b59b6" opacity="0.7"/><circle cx="134" cy="33" r="11" fill="#ecf0f1" stroke="rgba(0,0,0,0.2)" stroke-width="1.5"/><circle cx="134" cy="33" r="6" fill="none" stroke="rgba(0,0,0,0.1)" stroke-width="1"/><circle cx="224" cy="33" r="11" fill="#ecf0f1" stroke="rgba(0,0,0,0.2)" stroke-width="1.5"/><circle cx="224" cy="33" r="6" fill="none" stroke="rgba(0,0,0,0.1)" stroke-width="1"/><circle cx="314" cy="33" r="11" fill="#ecf0f1" stroke="rgba(0,0,0,0.2)" stroke-width="1.5"/><circle cx="314" cy="33" r="6" fill="none" stroke="rgba(0,0,0,0.1)" stroke-width="1"/><circle cx="89" cy="63" r="11" fill="#ecf0f1" stroke="rgba(0,0,0,0.2)" stroke-width="1.5"/><circle cx="89" cy="63" r="6" fill="none" stroke="rgba(0,0,0,0.1)" stroke-width="1"/><circle cx="179" cy="63" r="11" fill="#ecf0f1" stroke="rgba(0,0,0,0.2)" stroke-width="1.5"/><circle cx="179" cy="63" r="6" fill="none" stroke="rgba(0,0,0,0.1)" stroke-width="1"/><circle cx="269" cy="63" r="11" fill="#ecf0f1" stroke="rgba(0,0,0,0.2)" stroke-width="1.5"/><circle cx="269" cy="63" r="6" fill="none" stroke="rgba(0,0,0,0.1)" stroke-width="1"/><circle cx="134" cy="153" r="11" fill="#2c3e50" stroke="rgba(0,0,0,0.2)" stroke-width="1.5"/><circle cx="134" cy="153" r="6" fill="none" stroke="rgba(0,0,0,0.1)" stroke-width="1"/><circle cx="224" cy="153" r="11" fill="#2c3e50" stroke="rgba(0,0,0,0.2)" stroke-width="1.5"/><circle cx="224" cy="153" r="6" fill="none" stroke="rgba(0,0,0,0.1)" stroke-width="1"/><circle cx="314" cy="153" r="11" fill="#2c3e50" stroke="rgba(0,0,0,0.2)" stroke-width="1.5"/><circle cx="314" cy="153" r="6" fill="none" stroke="rgba(0,0,0,0.1)" stroke-width="1"/><circle cx="89" cy="183" r="11" fill="#2c3e50" stroke="rgba(0,0,0,0.2)" stroke-width="1.5"/><circle cx="89" cy="183" r="6" fill="none" stroke="rgba(0,0,0,0.1)" stroke-width="1"/><circle cx="179" cy="183" r="11" fill="#2c3e50" stroke="rgba(0,0,0,0.2)" stroke-width="1.5"/><circle cx="179" cy="183" r="6" fill="none" stroke="rgba(0,0,0,0.1)" stroke-width="1"/><circle cx="269" cy="183" r="11" fill="#2c3e50" stroke="rgba(0,0,0,0.2)" stroke-width="1.5"/><circle cx="269" cy="183" r="6" fill="none" stroke="rgba(0,0,0,0.1)" stroke-width="1"/><text x="200" y="213" font-family="Georgia,serif" font-size="13" font-weight="bold" text-anchor="middle" fill="rgba(255,255,255,0.7)" letter-spacing="2">MINI CHECKERS</text>
</svg>