<svg xmlns="http://www.w3.org/2000/svg" viewBox="0 0 400 225" width="400" height="225">
  <defs>
    <linearGradient id="bg" x1="0" y1="0" x2="1" y2="1">
      <stop offset="0%" stop-color="#1a2a4a"/>
      <stop offset="100%" stop-color="#0f1e38"/>
    </linearGradient>
  </defs>
  <rect width="400" height="225" fill="url(#bg)"/>
  <rect x="62" y="15" width="20" height="20" fill="rgba(255,255,255,0.05)" stroke="rgba(255,255,255,0.15)" stroke-width="0.5"/><text x="72" y="29" font-family="monospace" font-size="11" text-anchor="middle" fill="rgba(255,255,255,0.9)">5</text><rect x="82" y="15" width="20" height="20" fill="rgba(255,255,255,0.05)" stroke="rgba(255,255,255,0.15)" stroke-width="0.5"/><text x="92" y="29" font-family="monospace" font-size="11" text-anchor="middle" fill="rgba(100,180,255,0.9)">3</text><rect x="102" y="15" width="20" height="20" fill="rgba(255,255,255,0.05)" stroke="rgba(255,255,255,0.15)" stroke-width="0.5"/><rect x="122" y="15" width="20" height="20" fill="rgba(255,255,255,0.05)" stroke="rgba(255,255,255,0.15)" stroke-width="0.5"/><rect x="142" y="15" width="20" height="20" fill="rgba(255,255,255,0.05)" stroke="rgba(255,255,255,0.15)" stroke-width="0.5"/><text x="152" y="29" font-family="monospace" font-size="11" text-anchor="middle" fill="rgba(100,180,255,0.9)">7</text><rect x="162" y="15" width="20" height="20" fill="rgba(255,255,255,0.05)" stroke="rgba(255,255,255,0.15)" stroke-width="0.5"/><rect x="182" y="15" width="20" height="20" fill="rgba(255,255,255,0.05)" stroke="rgba(255,255,255,0.15)" stroke-width="0.5"/><rect x="202" y="15" width="20" height="20" fill="rgba(255,255,255,0.05)" stroke="rgba(255,255,255,0.15)" stroke-width="0.5"/><rect x="222" y="15" width="20" height="20" fill="rgba(255,255,255,0.05)" stroke="rgba(255,255,255,0.15)" stroke-width="0.5"/><rect x="62" y="35" width="20" height="20" fill="rgba(255,255,255,0.05)" stroke="rgba(255,255,255,0.15)" stroke-width="0.5"/><text x="72" y="49" font-family="monospace" font-size="11" text-anchor="middle" fill="rgba(100,180,255,0.9)">6</text><rect x="82" y="35" width="20" height="20" fill="rgba(255,255,255,0.05)" stroke="rgba(255,255,255,0.15)" stroke-width="0.5"/><rect x="102" y="35" width="20" height="20" fill="rgba(255,255,255,0.05)" stroke="rgba(255,255,255,0.15)" stroke-width="0.5"/><rect x="122" y="35" width="20" height="20" fill="rgba(255,255,255,0.05)" stroke="rgba(255,255,255,0.15)" stroke-width="0.5"/><text x="132" y="49" font-family="monospace" font-size="11" text-anchor="middle" fill="rgba(100,180,255,0.9)">1</text><rect x="142" y="35" width="20" height="20" fill="rgba(255,255,255,0.05)" stroke="rgba(255,255,255,0.15)" stroke-width="0.5"/><text x="152" y="49" font-family="monospace" font-size="11" text-anchor="middle" fill="rgba(100,180,255,0.9)">9</text><rect x="162" y="35" width="20" height="20" fill="rgba(255,255,255,0.05)" stroke="rgba(255,255,255,0.15)" stroke-width="0.5"/><text x="172" y="49" font-family="monospace" font-size="11" text-anchor="middle" fill="rgba(100,180,255,0.9)">5</text><rect x="182" y="35" width="20" height="20" fill="rgba(255,255,255,0.05)" stroke="rgba(255,255,255,0.15)" stroke-width="0.5"/><rect x="202" y="35" width="20" height="20" fill="rgba(255,255,255,0.05)" stroke="rgba(255,255,255,0.15)" stroke-width="0.5"/><rect x="222" y="35" width="20" height="20" fill="rgba(255,255,255,0.05)" stroke="rgba(255,255,255,0.15)" stroke-width="0.5"/><rect x="62" y="55" width="20" height="20" fill="rgba(255,255,255,0.05)" stroke="rgba(255,255,255,0.15)" stroke-width="0.5"/><rect x="82" y="55" width="20" height="20" fill="rgba(255,255,255,0.05)" stroke="rgba(255,255,255,0.15)" stroke-width="0.5"/><text x="92" y="69" font-family="monospace" font-size="11" text-anchor="middle" fill="rgba(100,180,255,0.9)">9</text><rect x="102" y="55" width="20" height="20" fill="rgba(255,255,255,0.05)" stroke="rgba(255,255,255,0.15)" stroke-width="0.5"/><text x="112" y="69" font-family="monospace" font-size="11" text-anchor="middle" fill="rgba(100,180,255,0.9)">8</text><rect x="122" y="55" width="20" height="20" fill="rgba(255,255,255,0.05)" stroke="rgba(255,255,255,0.15)" stroke-width="0.5"/><rect x="142" y="55" width="20" height="20" fill="rgba(255,255,255,0.05)" stroke="rgba(255,255,255,0.15)" stroke-width="0.5"/><rect x="162" y="55" width="20" height="20" fill="rgba(255,255,255,0.05)" stroke="rgba(255,255,255,0.15)" stroke-width="0.5"/><rect x="182" y="55" width="20" height="20" fill="rgba(255,255,255,0.05)" stroke="rgba(255,255,255,0.15)" stroke-width="0.5"/><rect x="202" y="55" width="20" height="20" fill="rgba(255,255,255,0.05)" stroke="rgba(255,255,255,0.15)" stroke-width="0.5"/><text x="212" y="69" font-family="monospace" font-size="11" text-anchor="middle" fill="rgba(100,180,255,0.9)">6</text><rect x="222" y="55" width="20" height="20" fill="rgba(255,255,255,0.05)" stroke="rgba(255,255,255,0.15)" stroke-width="0.5"/><rect x="62" y="75" width="20" height="20" fill="rgba(255,255,255,0.05)" stroke="rgba(255,255,255,0.15)" stroke-width="0.5"/><text x="72" y="89" font-family="monospace" font-size="11" text-anchor="middle" fill="rgba(100,180,255,0.9)">8</text><rect x="82" y="75" width="20" height="20" fill="rgba(255,255,255,0.05)" stroke="rgba(255,255,255,0.15)" stroke-width="0.5"/><rect x="102" y="75" width="20" height="20" fill="rgba(255,255,255,0.05)" stroke="rgba(255,255,255,0.15)" stroke-width="0.5"/><rect x="122" y="75" width="20" height="20" fill="rgba(255,255,255,0.05)" stroke="rgba(255,255,255,0.15)" stroke-width="0.5"/><rect x="142" y="75" width="20" height="20" fill="rgba(255,255,255,0.05)" stroke="rgba(255,255,255,0.15)" stroke-width="0.5"/><text x="152" y="89" font-family="monospace" font-size="11" text-anchor="middle" fill="rgba(100,180,255,0.9)">6</text><rect x="162" y="75" width="20" height="20" fill="rgba(255,255,255,0.05)" stroke="rgba(255,255,255,0.15)" stroke-width="0.5"/><rect x="182" y="75" width="20" height="20" fill="rgba(255,255,255,0.05)" stroke="rgba(255,255,255,0.15)" stroke-width="0.5"/><rect x="202" y="75" width="20" height="20" fill="rgba(255,255,255,0.05)" stroke="rgba(255,255,255,0.15)" stroke-width="0.5"/><rect x="222" y="75" width="20" height="20" fill="rgba(255,255,255,0.05)" stroke="rgba(255,255,255,0.15)" stroke-width="0.5"/><text x="232" y="89" font-family="monospace" font-size="11" text-anchor="middle" fill="rgba(100,180,255,0.9)">3</text><rect x="62" y="95" width="20" height="20" fill="rgba(255,255,255,0.05)" stroke="rgba(255,255,255,0.15)" stroke-width="0.5"/><text x="72" y="109" font-family="monospace" font-size="11" text-anchor="middle" fill="rgba(100,180,255,0.9)">4</text><rect x="82" y="95" width="20" height="20" fill="rgba(255,255,255,0.05)" stroke="rgba(255,255,255,0.15)" stroke-width="0.5"/><rect x="102" y="95" width="20" height="20" fill="rgba(255,255,255,0.05)" stroke="rgba(255,255,255,0.15)" stroke-width="0.5"/><rect x="122" y="95" width="20" height="20" fill="rgba(255,255,255,0.05)" stroke="rgba(255,255,255,0.15)" stroke-width="0.5"/><text x="132" y="109" font-family="monospace" font-size="11" text-anchor="middle" fill="rgba(100,180,255,0.9)">8</text><rect x="142" y="95" width="20" height="20" fill="rgba(255,255,255,0.05)" stroke="rgba(255,255,255,0.15)" stroke-width="0.5"/><rect x="162" y="95" width="20" height="20" fill="rgba(255,255,255,0.05)" stroke="rgba(255,255,255,0.15)" stroke-width="0.5"/><text x="172" y="109" font-family="monospace" font-size="11" text-anchor="middle" fill="rgba(100,180,255,0.9)">3</text><rect x="182" y="95" width="20" height="20" fill="rgba(255,255,255,0.05)" stroke="rgba(255,255,255,0.15)" stroke-width="0.5"/><rect x="202" y="95" width="20" height="20" fill="rgba(255,255,255,0.05)" stroke="rgba(255,255,255,0.15)" stroke-width="0.5"/><rect x="222" y="95" width="20" height="20" fill="rgba(255,255,255,0.05)" stroke="rgba(255,255,255,0.15)" stroke-width="0.5"/><text x="232" y="109" font-family="monospace" font-size="11" text-anchor="middle" fill="rgba(100,180,255,0.9)">1</text><rect x="62" y="115" width="20" height="20" fill="rgba(255,255,255,0.05)" stroke="rgba(255,255,255,0.15)" stroke-width="0.5"/><text x="72" y="129" font-family="monospace" font-size="11" text-anchor="middle" fill="rgba(100,180,255,0.9)">7</text><rect x="82" y="115" width="20" height="20" fill="rgba(255,255,255,0.05)" stroke="rgba(255,255,255,0.15)" stroke-width="0.5"/><rect x="102" y="115" width="20" height="20" fill="rgba(255,255,255,0.05)" stroke="rgba(255,255,255,0.15)" stroke-width="0.5"/><rect x="122" y="115" width="20" height="20" fill="rgba(255,255,255,0.05)" stroke="rgba(255,255,255,0.15)" stroke-width="0.5"/><rect x="142" y="115" width="20" height="20" fill="rgba(255,255,255,0.05)" stroke="rgba(255,255,255,0.15)" stroke-width="0.5"/><text x="152" y="129" font-family="monospace" font-size="11" text-anchor="middle" fill="rgba(100,180,255,0.9)">2</text><rect x="162" y="115" width="20" height="20" fill="rgba(255,255,255,0.05)" stroke="rgba(255,255,255,0.15)" stroke-width="0.5"/><rect x="182" y="115" width="20" height="20" fill="rgba(255,255,255,0.05)" stroke="rgba(255,255,255,0.15)" stroke-width="0.5"/><rect x="202" y="115" width="20" height="20" fill="rgba(255,255,255,0.05)" stroke="rgba(255,255,255,0.15)" stroke-width="0.5"/><rect x="222" y="115" width="20" height="20" fill="rgba(255,255,255,0.05)" stroke="rgba(255,255,255,0.15)" stroke-width="0.5"/><text x="232" y="129" font-family="monospace" font-size="11" text-anchor="middle" fill="rgba(100,180,255,0.9)">6</text><rect x="62" y="135" width="20" height="20" fill="rgba(255,255,255,0.05)" stroke="rgba(255,255,255,0.15)" stroke-width="0.5"/><rect x="82" y="135" width="20" height="20" fill="rgba(255,255,255,0.05)" stroke="rgba(255,255,255,0.15)" stroke-width="0.5"/><text x="92" y="149" font-family="monospace" font-size="11" text-anchor="middle" fill="rgba(100,180,255,0.9)">6</text><rect x="102" y="135" width="20" height="20" fill="rgba(255,255,255,0.05)" stroke="rgba(255,255,255,0.15)" stroke-width="0.5"/><rect x="122" y="135" width="20" height="20" fill="rgba(255,255,255,0.05)" stroke="rgba(255,255,255,0.15)" stroke-width="0.5"/><rect x="142" y="135" width="20" height="20" fill="rgba(255,255,255,0.05)" stroke="rgba(255,255,255,0.15)" stroke-width="0.5"/><rect x="162" y="135" width="20" height="20" fill="rgba(255,255,255,0.05)" stroke="rgba(255,255,255,0.15)" stroke-width="0.5"/><rect x="182" y="135" width="20" height="20" fill="rgba(255,255,255,0.05)" stroke="rgba(255,255,255,0.15)" stroke-width="0.5"/><text x="192" y="149" font-family="monospace" font-size="11" text-anchor="middle" fill="rgba(100,180,255,0.9)">2</text><rect x="202" y="135" width="20" height="20" fill="rgba(255,255,255,0.05)" stroke="rgba(255,255,255,0.15)" stroke-width="0.5"/><text x="212" y="149" font-family="monospace" font-size="11" text-anchor="middle" fill="rgba(100,180,255,0.9)">8</text><rect x="222" y="135" width="20" height="20" fill="rgba(255,255,255,0.05)" stroke="rgba(255,255,255,0.15)" stroke-width="0.5"/><rect x="62" y="155" width="20" height="20" fill="rgba(255,255,255,0.05)" stroke="rgba(255,255,255,0.15)" stroke-width="0.5"/><rect x="82" y="155" width="20" height="20" fill="rgba(255,255,255,0.05)" stroke="rgba(255,255,255,0.15)" stroke-width="0.5"/><rect x="102" y="155" width="20" height="20" fill="rgba(255,255,255,0.05)" stroke="rgba(255,255,255,0.15)" stroke-width="0.5"/><rect x="122" y="155" width="20" height="20" fill="rgba(255,255,255,0.05)" stroke="rgba(255,255,255,0.15)" stroke-width="0.5"/><text x="132" y="169" font-family="monospace" font-size="11" text-anchor="middle" fill="rgba(100,180,255,0.9)">4</text><rect x="142" y="155" width="20" height="20" fill="rgba(255,255,255,0.05)" stroke="rgba(255,255,255,0.15)" stroke-width="0.5"/><text x="152" y="169" font-family="monospace" font-size="11" text-anchor="middle" fill="rgba(100,180,255,0.9)">1</text><rect x="162" y="155" width="20" height="20" fill="rgba(255,255,255,0.05)" stroke="rgba(255,255,255,0.15)" stroke-width="0.5"/><text x="172" y="169" font-family="monospace" font-size="11" text-anchor="middle" fill="rgba(100,180,255,0.9)">9</text><rect x="182" y="155" width="20" height="20" fill="rgba(255,255,255,0.05)" stroke="rgba(255,255,255,0.15)" stroke-width="0.5"/><rect x="202" y="155" width="20" height="20" fill="rgba(255,255,255,0.05)" stroke="rgba(255,255,255,0.15)" stroke-width="0.5"/><rect x="222" y="155" width="20" height="20" fill="rgba(255,255,255,0.05)" stroke="rgba(255,255,255,0.15)" stroke-width="0.5"/><text x="232" y="169" font-family="monospace" font-size="11" text-anchor="middle" fill="rgba(100,180,255,0.9)">5</text><rect x="62" y="175" width="20" height="20" fill="rgba(255,255,255,0.05)" stroke="rgba(255,255,255,0.15)" stroke-width="0.5"/><rect x="82" y="175" width="20" height="20" fill="rgba(255,255,255,0.05)" stroke="rgba(255,255,255,0.15)" stroke-width="0.5"/><rect x="102" y="175" width="20" height="20" fill="rgba(255,255,255,0.05)" stroke="rgba(255,255,255,0.15)" stroke-width="0.5"/><rect x="122" y="175" width="20" height="20" fill="rgba(255,255,255,0.05)" stroke="rgba(255,255,255,0.15)" stroke-width="0.5"/><rect x="142" y="175" width="20" height="20" fill="rgba(255,255,255,0.05)" stroke="rgba(255,255,255,0.15)" stroke-width="0.5"/><text x="152" y="189" font-family="monospace" font-size="11" text-anchor="middle" fill="rgba(100,180,255,0.9)">8</text><rect x="162" y="175" width="20" height="20" fill="rgba(255,255,255,0.05)" stroke="rgba(255,255,255,0.15)" stroke-width="0.5"/><rect x="182" y="175" width="20" height="20" fill="rgba(255,255,255,0.05)" stroke="rgba(255,255,255,0.15)" stroke-width="0.5"/><rect x="202" y="175" width="20" height="20" fill="rgba(255,255,255,0.05)" stroke="rgba(255,255,255,0.15)" stroke-width="0.5"/><text x="212" y="189" font-family="monospace" font-size="11" text-anchor="middle" fill="rgba(100,180,255,0.9)">7</text><rect x="222" y="175" width="20" height="20" fill="rgba(255,255,255,0.05)" stroke="rgba(255,255,255,0.15)" stroke-width="0.5"/><text x="232" y="189" font-family="monospace" font-size="11" text-anchor="middle" fill="rgba(100,180,255,0.9)">9</text><line x1="62" y1="15" x2="62" y2="195" stroke="rgba(255,255,255,0.5)" stroke-width="1.5"/><line x1="62" y1="15" x2="242" y2="15" stroke="rgba(255,255,255,0.5)" stroke-width="1.5"/><line x1="122" y1="15" x2="122" y2="195" stroke="rgba(255,255,255,0.5)" stroke-width="1.5"/><line x1="62" y1="75" x2="242" y2="75" stroke="rgba(255,255,255,0.5)" stroke-width="1.5"/><line x1="182" y1="15" x2="182" y2="195" stroke="rgba(255,255,255,0.5)" stroke-width="1.5"/><line x1="62" y1="135" x2="242" y2="135" stroke="rgba(255,255,255,0.5)" stroke-width="1.5"/><line x1="242" y1="15" x2="242" y2="195" stroke="rgba(255,255,255,0.5)" stroke-width="1.5"/><line x1="62" y1="195" x2="242" y2="195" stroke="rgba(255,255,255,0.5)" stroke-width="1.5"/><text x="200" y="213" font-family="Georgia,serif" font-size="15" font-weight="bold" text-anchor="middle" fill="rgba(255,255,255,0.7)" letter-spacing="3">SUDOKU</text>
</svg>