<svg xmlns="http://www.w3.org/2000/svg" viewBox="0 0 400 225" width="400" height="225">
  <defs>
    <linearGradient id="bg" x1="0" y1="0" x2="1" y2="1">
      <stop offset="0%" stop-color="#0a1a3a"/>
      <stop offset="100%" stop-color="#060f24"/>
    </linearGradient>
  </defs>
  <rect width="400" height="225" fill="url(#bg)"/>
  <rect x="52" y="18" width="48" height="26" rx="4" fill="rgba(52,152,219,0.6)"/><text x="76" y="36" font-family="monospace" font-size="13" font-weight="bold" text-anchor="middle" fill="white">P</text><rect x="104" y="18" width="48" height="26" rx="4" fill="rgba(52,152,219,0.6)"/><text x="128" y="36" font-family="monospace" font-size="13" font-weight="bold" text-anchor="middle" fill="white">U</text><rect x="156" y="18" width="48" height="26" rx="4" fill="rgba(52,152,219,0.6)"/><text x="180" y="36" font-family="monospace" font-size="13" font-weight="bold" text-anchor="middle" fill="white">Z</text><rect x="208" y="18" width="48" height="26" rx="4" fill="rgba(52,152,219,0.6)"/><text x="232" y="36" font-family="monospace" font-size="13" font-weight="bold" text-anchor="middle" fill="white">Z</text><rect x="260" y="18" width="48" height="26" rx="4" fill="rgba(52,152,219,0.6)"/><text x="284" y="36" font-family="monospace" font-size="13" font-weight="bold" text-anchor="middle" fill="white">L</text><rect x="312" y="18" width="48" height="26" rx="4" fill="rgba(52,152,219,0.6)"/><text x="336" y="36" font-family="monospace" font-size="13" font-weight="bold" text-anchor="middle" fill="white">E</text><rect x="52" y="48" width="48" height="26" rx="4" fill="rgba(255,255,255,0.08)"/><text x="76" y="66" font-family="monospace" font-size="13" font-weight="bold" text-anchor="middle" fill="rgba(200,220,255,0.7)">A</text><rect x="104" y="48" width="48" height="26" rx="4" fill="rgba(255,255,255,0.08)"/><text x="128" y="66" font-family="monospace" font-size="13" font-weight="bold" text-anchor="middle" fill="rgba(200,220,255,0.7)">X</text><rect x="156" y="48" width="48" height="26" rx="4" fill="rgba(255,255,255,0.08)"/><text x="180" y="66" font-family="monospace" font-size="13" font-weight="bold" text-anchor="middle" fill="rgba(200,220,255,0.7)">W</text><rect x="208" y="48" width="48" height="26" rx="4" fill="rgba(255,255,255,0.08)"/><text x="232" y="66" font-family="monospace" font-size="13" font-weight="bold" text-anchor="middle" fill="rgba(200,220,255,0.7)">Q</text><rect x="260" y="48" width="48" height="26" rx="4" fill="rgba(255,255,255,0.08)"/><text x="284" y="66" font-family="monospace" font-size="13" font-weight="bold" text-anchor="middle" fill="rgba(200,220,255,0.7)">B</text><rect x="312" y="48" width="48" height="26" rx="4" fill="rgba(255,255,255,0.08)"/><text x="336" y="66" font-family="monospace" font-size="13" font-weight="bold" text-anchor="middle" fill="rgba(200,220,255,0.7)">R</text><rect x="52" y="78" width="48" height="26" rx="4" fill="rgba(255,255,255,0.08)"/><text x="76" y="96" font-family="monospace" font-size="13" font-weight="bold" text-anchor="middle" fill="rgba(200,220,255,0.7)">D</text><rect x="104" y="78" width="48" height="26" rx="4" fill="rgba(52,152,219,0.6)"/><text x="128" y="96" font-family="monospace" font-size="13" font-weight="bold" text-anchor="middle" fill="white">W</text><rect x="156" y="78" width="48" height="26" rx="4" fill="rgba(52,152,219,0.6)"/><text x="180" y="96" font-family="monospace" font-size="13" font-weight="bold" text-anchor="middle" fill="white">O</text><rect x="208" y="78" width="48" height="26" rx="4" fill="rgba(52,152,219,0.6)"/><text x="232" y="96" font-family="monospace" font-size="13" font-weight="bold" text-anchor="middle" fill="white">R</text><rect x="260" y="78" width="48" height="26" rx="4" fill="rgba(52,152,219,0.6)"/><text x="284" y="96" font-family="monospace" font-size="13" font-weight="bold" text-anchor="middle" fill="white">D</text><rect x="312" y="78" width="48" height="26" rx="4" fill="rgba(52,152,219,0.6)"/><text x="336" y="96" font-family="monospace" font-size="13" font-weight="bold" text-anchor="middle" fill="white">S</text><rect x="52" y="108" width="48" height="26" rx="4" fill="rgba(255,255,255,0.08)"/><text x="76" y="126" font-family="monospace" font-size="13" font-weight="bold" text-anchor="middle" fill="rgba(200,220,255,0.7)">H</text><rect x="104" y="108" width="48" height="26" rx="4" fill="rgba(255,255,255,0.08)"/><text x="128" y="126" font-family="monospace" font-size="13" font-weight="bold" text-anchor="middle" fill="rgba(200,220,255,0.7)">M</text><rect x="156" y="108" width="48" height="26" rx="4" fill="rgba(255,255,255,0.08)"/><text x="180" y="126" font-family="monospace" font-size="13" font-weight="bold" text-anchor="middle" fill="rgba(200,220,255,0.7)">K</text><rect x="208" y="108" width="48" height="26" rx="4" fill="rgba(255,255,255,0.08)"/><text x="232" y="126" font-family="monospace" font-size="13" font-weight="bold" text-anchor="middle" fill="rgba(200,220,255,0.7)">F</text><rect x="260" y="108" width="48" height="26" rx="4" fill="rgba(255,255,255,0.08)"/><text x="284" y="126" font-family="monospace" font-size="13" font-weight="bold" text-anchor="middle" fill="rgba(200,220,255,0.7)">T</text><rect x="312" y="108" width="48" height="26" rx="4" fill="rgba(255,255,255,0.08)"/><text x="336" y="126" font-family="monospace" font-size="13" font-weight="bold" text-anchor="middle" fill="rgba(200,220,255,0.7)">Z</text><rect x="52" y="138" width="48" height="26" rx="4" fill="rgba(255,255,255,0.08)"/><text x="76" y="156" font-family="monospace" font-size="13" font-weight="bold" text-anchor="middle" fill="rgba(200,220,255,0.7)">C</text><rect x="104" y="138" width="48" height="26" rx="4" fill="rgba(255,255,255,0.08)"/><text x="128" y="156" font-family="monospace" font-size="13" font-weight="bold" text-anchor="middle" fill="rgba(200,220,255,0.7)">L</text><rect x="156" y="138" width="48" height="26" rx="4" fill="rgba(255,255,255,0.08)"/><text x="180" y="156" font-family="monospace" font-size="13" font-weight="bold" text-anchor="middle" fill="rgba(200,220,255,0.7)">O</text><rect x="208" y="138" width="48" height="26" rx="4" fill="rgba(255,255,255,0.08)"/><text x="232" y="156" font-family="monospace" font-size="13" font-weight="bold" text-anchor="middle" fill="rgba(200,220,255,0.7)">V</text><rect x="260" y="138" width="48" height="26" rx="4" fill="rgba(255,255,255,0.08)"/><text x="284" y="156" font-family="monospace" font-size="13" font-weight="bold" text-anchor="middle" fill="rgba(200,220,255,0.7)">E</text><rect x="312" y="138" width="48" height="26" rx="4" fill="rgba(255,255,255,0.08)"/><text x="336" y="156" font-family="monospace" font-size="13" font-weight="bold" text-anchor="middle" fill="rgba(200,220,255,0.7)">R</text><rect x="52" y="168" width="48" height="26" rx="4" fill="rgba(52,152,219,0.6)"/><text x="76" y="186" font-family="monospace" font-size="13" font-weight="bold" text-anchor="middle" fill="white">S</text><rect x="104" y="168" width="48" height="26" rx="4" fill="rgba(52,152,219,0.6)"/><text x="128" y="186" font-family="monospace" font-size="13" font-weight="bold" text-anchor="middle" fill="white">E</text><rect x="156" y="168" width="48" height="26" rx="4" fill="rgba(52,152,219,0.6)"/><text x="180" y="186" font-family="monospace" font-size="13" font-weight="bold" text-anchor="middle" fill="white">A</text><rect x="208" y="168" width="48" height="26" rx="4" fill="rgba(52,152,219,0.6)"/><text x="232" y="186" font-family="monospace" font-size="13" font-weight="bold" text-anchor="middle" fill="white">R</text><rect x="260" y="168" width="48" height="26" rx="4" fill="rgba(52,152,219,0.6)"/><text x="284" y="186" font-family="monospace" font-size="13" font-weight="bold" text-anchor="middle" fill="white">C</text><rect x="312" y="168" width="48" height="26" rx="4" fill="rgba(52,152,219,0.6)"/><text x="336" y="186" font-family="monospace" font-size="13" font-weight="bold" text-anchor="middle" fill="white">H</text><text x="200" y="213" font-family="Georgia,serif" font-size="13" font-weight="bold" text-anchor="middle" fill="rgba(255,255,255,0.7)" letter-spacing="2">WORD PUZZLE</text>
</svg>